<?xml version="1.0" standalone="no"?>
<!DOCTYPE svg PUBLIC "-//W3C//DTD SVG 20010904//EN"
 "http://www.w3.org/TR/2001/REC-SVG-20010904/DTD/svg10.dtd">
<svg version="1.0" xmlns="http://www.w3.org/2000/svg"
 width="558.000000pt" height="558.000000pt" viewBox="0 0 558.000000 558.000000"
 preserveAspectRatio="xMidYMid meet">
<metadata>
Created by potrace 1.11, written by Peter Selinger 2001-2013
</metadata>
<g transform="translate(0.000000,558.000000) scale(0.100000,-0.100000)"
fill="#000000" stroke="none">
<path d="M2495 5564 c-49 -7 -110 -15 -135 -19 -25 -4 -52 -8 -60 -9 -149 -23
-444 -112 -588 -177 -385 -175 -599 -317 -863 -575 -288 -281 -478 -558 -639
-929 -34 -79 -110 -312 -124 -381 -3 -10 -14 -59 -25 -107 -12 -48 -24 -111
-27 -140 -4 -29 -8 -55 -11 -59 -22 -39 -21 -655 2 -768 3 -14 7 -38 9 -55 7
-44 25 -133 36 -174 5 -20 11 -47 14 -61 9 -48 57 -204 92 -299 110 -296 283
-590 486 -829 71 -83 251 -262 323 -320 39 -31 72 -60 75 -63 17 -20 187 -138
278 -192 279 -168 601 -295 896 -353 225 -44 269 -48 551 -48 201 0 348 7 400
17 11 3 40 8 65 12 76 12 253 53 298 69 23 8 42 13 42 11 0 -5 154 51 265 95
103 41 287 133 390 195 68 41 279 187 295 205 3 3 28 23 55 45 50 39 271 257
312 307 251 306 415 593 531 933 42 121 86 287 97 360 4 22 10 58 15 80 32
150 35 686 5 885 -11 68 -47 236 -62 285 -89 295 -172 496 -280 680 -45 76
-156 242 -185 277 -13 15 -34 41 -48 59 -91 119 -307 333 -450 448 -312 251
-657 422 -1060 526 -51 14 -253 53 -295 58 -188 23 -549 28 -680 11z"/>
</g>
</svg>
